<svg xmlns="http://www.w3.org/2000/svg" viewBox="0 0 104.5 104.5"><path d="M52.2 5C26.2 5 5 26.2 5 52.2s21.2 47.3 47.3 47.3 47.3-21.2 47.3-47.3S78.3 5 52.2 5zm0 4.2c1.7 0 3 1.4 3 3.1 0 1.7-1.4 3.1-3.1 3.1S49 14 49 12.3c0-1.7 1.4-3.1 3.2-3.1-.1 0-.1 0 0 0zm7.1 5.1c11.1 2.1 20.6 8.9 26.2 18.7l-3.7 8.3c-.6 1.4 0 3.1 1.4 3.8l7.1 3.1c.2 2.2.2 4.4.1 6.6h-3.9c-.4 0-.6.3-.6.6v1.8c0 4.2-2.4 5.2-4.5 5.4-2 .2-4.2-.8-4.5-2.1-1.2-6.6-3.1-8-6.2-10.5 3.8-2.4 7.8-6 7.8-10.9 0-5.2-3.6-8.5-6-10.1-3.4-2.2-7.2-2.7-8.2-2.7H23.7c5.6-6.3 13.1-10.5 21.4-12.1l4.8 5c1.1 1.1 2.9 1.2 4 .1l5.4-5zm-44.2 23c1.7 0 3 1.4 3 3.1 0 1.7-1.4 3.1-3.1 3.1-1.7 0-3.1-1.4-3.1-3.1 0-1.7 1.4-3.1 3.2-3.1-.1 0 0 0 0 0zm74.1.2c1.7 0 3 1.4 3 3.1 0 1.7-1.4 3.1-3.1 3.1S86 42.3 86 40.6c0-1.7 1.4-3.1 3.2-3.1zM21 38h5.4v24.4h-11c-1.4-4.7-1.8-9.7-1.2-14.6l6.7-3c1.4-.6 2.1-2.3 1.4-3.7L21 38zm22.6.2h12.9c.7 0 4.7.8 4.7 3.8 0 2.5-3.1 3.4-5.7 3.4h-12l.1-7.2zm0 17.6h9.9c.9 0 4.8.3 6.1 5.3.4 1.5 1.3 6.6 1.8 8.2.6 1.8 3 5.4 5.5 5.4H83c-1.1 1.4-2.3 2.8-3.5 4.1L73 77.3c-1.5-.3-3 .7-3.4 2.2L68 86.8c-10.2 4.6-21.8 4.5-31.9-.2l-1.6-7.3c-.3-1.5-1.8-2.5-3.4-2.2l-6.4 1.4c-1.2-1.2-2.3-2.5-3.3-3.9h31.3c.3 0 .6-.1.6-.4v-11c0-.3-.2-.4-.6-.4h-9.2l.1-7zM29.1 81.1c1.7 0 3 1.4 3 3.1 0 1.7-1.4 3.1-3.1 3.1s-3.1-1.4-3.1-3.1c0-1.7 1.4-3.1 3.2-3.1zm46.1.1c1.7 0 3 1.4 3 3.1 0 1.7-1.4 3.1-3.1 3.1s-3.1-1.3-3.1-3c0-1.8 1.4-3.2 3.2-3.2-.1 0 0 0 0 0z"/><path fill-rule="evenodd" stroke="#000" stroke-linecap="round" stroke-linejoin="round" stroke-width="3" d="M96.9 52.2c0 24.6-20 44.6-44.6 44.6S7.6 76.9 7.6 52.2h0c0-24.6 20-44.6 44.6-44.6s44.7 20 44.7 44.6c0 0 0 0 0 0zm-.9-4.3 7 4.3-7 4.3 6 5.6-7.6 2.9 4.8 6.7L91 73l3.4 7.5-8.2-.3 1.9 8-8-1.9.3 8.2L73 91l-1.3 8.1-6.7-4.7-2.9 7.7-5.6-6-4.3 7-4.3-7-5.6 6-2.9-7.7-6.7 4.8-1.2-8.2-7.5 3.4.3-8.2-8 1.9 1.9-8-8.2.3 3.4-7.5-8.1-1.3 4.8-6.7L2.4 62l6-5.6-7-4.3 7-4.3-6-5.6 7.7-2.9-4.8-6.7 8.1-1.3L10 24l8.2.3-1.9-8 8 1.9L24 10l7.5 3.4 1.3-8.1 6.7 4.8 2.9-7.7 5.6 6 4.3-7 4.3 7 5.6-6 2.9 7.7 6.7-4.8 1.3 8.1 7.5-3.4-.3 8.2 8-1.9-1.9 8 8.2-.3-3.6 7.5 8.1 1.3-4.8 6.7 7.7 2.9-6 5.5z" class="st0" clip-rule="evenodd"/></svg>